<svg xmlns="http://www.w3.org/2000/svg" viewBox="0 0 40 40" width="40" height="40" role="img" aria-label="소통">
  <path d="M9 5h22a5 5 0 0 1 5 5v13a5 5 0 0 1-5 5H19l-7.5 6.2A1 1 0 0 1 10 33.4V28H9a5 5 0 0 1-5-5V10a5 5 0 0 1 5-5Z" fill="#7c3aed"/>
  <g stroke="#ffffff" stroke-width="2.4" stroke-linecap="round" stroke-linejoin="round" fill="none">
    <path d="M13.5 14.5h11"/>
    <path d="M21.5 11.5 24.5 14.5 21.5 17.5"/>
    <path d="M26.5 21.5h-11"/>
    <path d="M18.5 18.5 15.5 21.5 18.5 24.5"/>
  </g>
</svg>
